<svg xmlns="http://www.w3.org/2000/svg" width="40" height="120">
  <svg width="40" height="40">
    <path fill="#D8D8D8" d="M20.4 0C9.4-.2.2 8.5 0 19.6S8.5 39.8 19.6 40h.8c11-.2 19.8-9.4 19.6-20.4C39.8 8.9 31.1.2 20.4 0zm0 6a6.6 6.6 0 1 1 .01 13.19A6.6 6.6 0 0 1 20.4 6zm0 28.8c-3.5 0-6.9-1.2-9.6-3.5-.6-.5-1-1.3-1-2.1 0-3.7 3-6.7 6.7-6.7h7.7c3.7 0 6.7 2.9 6.7 6.6v.1c0 .8-.4 1.6-1 2.1-2.6 2.2-6 3.5-9.5 3.5z"/>
  </svg>
  <svg width="40" height="40" y="40">
    <path fill="#D8D8D8" d="M21.9 2.1l4.5 9.1c.3.6.9 1.1 1.6 1.2l10.1 1.5c1.2.2 2 1.3 1.8 2.4-.1.5-.3.9-.6 1.2L32 24.7c-.5.5-.7 1.2-.6 1.9l1.7 10c.2 1.2-.6 2.3-1.8 2.5-.5.1-.9 0-1.3-.2l-9-4.7c-.6-.3-1.4-.3-2 0l-9 4.7c-1.6.8-3.4-.5-3.1-2.3l1.7-10c.1-.7-.1-1.4-.6-1.9L.7 17.6a2 2 0 0 1 0-3c.3-.3.8-.6 1.2-.6L12 12.5c.7-.1 1.3-.5 1.6-1.2l4.5-9.1c.5-1.1 1.8-1.5 2.9-1 .4.1.7.4.9.9z"/>
  </svg>
  <svg width="40" height="40" y="80">
    <path fill="#FAD130" d="M21.9 2.1l4.5 9.1c.3.6.9 1.1 1.6 1.2l10.1 1.5c1.2.2 2 1.3 1.8 2.4-.1.5-.3.9-.6 1.2L32 24.7c-.5.5-.7 1.2-.6 1.9l1.7 10c.2 1.2-.6 2.3-1.8 2.5-.5.1-.9 0-1.3-.2l-9-4.7c-.6-.3-1.4-.3-2 0l-9 4.7c-1.6.8-3.4-.5-3.1-2.3l1.7-10c.1-.7-.1-1.4-.6-1.9L.7 17.6a2 2 0 0 1 0-3c.3-.3.8-.6 1.2-.6L12 12.5c.7-.1 1.3-.5 1.6-1.2l4.5-9.1c.5-1.1 1.8-1.5 2.9-1 .4.1.7.4.9.9z"/>
  </svg>
</svg>
