<?xml version="1.0" encoding="utf-8"?>
<!-- Generator: Adobe Illustrator 16.0.0, SVG Export Plug-In . SVG Version: 6.00 Build 0)  -->
<!DOCTYPE svg PUBLIC "-//W3C//DTD SVG 1.1//EN" "http://www.w3.org/Graphics/SVG/1.1/DTD/svg11.dtd">
<svg version="1.1" id="Katman_0_xA0_Image_1_" xmlns="http://www.w3.org/2000/svg" xmlns:xlink="http://www.w3.org/1999/xlink"
	 x="0px" y="0px" width="1920px" height="1034px" viewBox="0 0 1920 1034" enable-background="new 0 0 1920 1034"
	 xml:space="preserve">
<g>

	<path fill-rule="evenodd" clip-rule="evenodd" fill="rgb(249, 251, 255)" d="M-28.474,270.806c-0.808,0-1.616,0-2.424,0
		c-3.135-2.291-6.648-1.353-10.082-1.179c-6.562,0.461-13.046,1.412-19.5,2.605c-2.434,0.45-4.772,0.287-6.768-1.424
		c0-17.771,0-35.542,0-53.313c7.605-2.997,15.712-3.411,23.668-3.939c34.086-2.259,66.692,4.323,97.977,17.669
		c20.961,8.943,39.615,21.509,56.599,36.701c17.315,15.487,31.532,33.392,42.922,53.573c15.021,26.614,23.575,55.433,26.144,85.647
		c2.829,33.264-3.055,65.442-15.756,96.486c-9.144,22.347-21.912,42.16-37.991,60C90.901,602.928,46.58,625.125-5.567,632.148
		c-18.695,2.518-37.411,2.116-56.063-0.73c-1.981-0.303-4.043-0.457-5.618-1.961c0-17.367,0-34.734,0-52.102
		c3.05-2.512,6.469-1.517,9.784-0.924c7.721,1.383,15.439,2.334,23.273,0.968c1.204-0.209,2.365-0.382,3.292-1.253
		c0.808,0,1.616,0,2.424,0c4.9,2.382,10.144,2.303,15.338,1.83c30.458-2.767,57.292-14.561,81-33.499
		c33.722-26.935,53.07-62.269,56.794-105.042c4.58-52.589-12.261-97.895-51.985-133.349c-24.62-21.972-54.119-33.951-87.017-37.19
		C-19.116,268.427-23.98,268.583-28.474,270.806z"/>
</g>
</svg>
