<?xml version="1.0" encoding="utf-8"?>
<!-- Generator: Adobe Illustrator 16.0.0, SVG Export Plug-In . SVG Version: 6.00 Build 0)  -->
<!DOCTYPE svg PUBLIC "-//W3C//DTD SVG 1.1//EN" "http://www.w3.org/Graphics/SVG/1.1/DTD/svg11.dtd">
<svg version="1.1" id="Layer_1" xmlns="http://www.w3.org/2000/svg" xmlns:xlink="http://www.w3.org/1999/xlink" x="0px" y="0px"
	 width="1300px" height="498.87px" viewBox="-136.5 27.954 1466 498.87" enable-background="new -136.5 27.954 1466 498.87"
	 xml:space="preserve">
<path fill="#F9FBFF" d="M448.681,177.278c-10.754,10.413-19.998,22.165-27.335,35.315c-34.494,61.816-12.466,136.499,55.835,185.874
	c46.293,33.465,103.972,50.705,160.932,52.785c82.857,3.023,164.66,16.378,241.979,41.077
	c164.784,52.642,329.53,43.93,407.035-31.098c100.232-97.03,16.563-268.152-186.877-382.214
	c-162.172-90.922-459.313,5.68-589.545,64.453C477.563,158.428,455.229,170.936,448.681,177.278z"/>
<path fill="#F9FBFF" d="M701.628,432.342c13.311-9.309,25.449-20.059,36.035-32.346c49.764-57.752,46.368-132.946-9.454-187.229
	c-37.836-36.791-91.06-58.622-147.334-65.51c-81.861-10.015-160.104-30.085-231.053-60.909
	C198.611,20.653,32.183,15.192-63.749,82.258c-124.063,86.733-83.188,261.847,91.293,391.13
	C202.026,602.668,661.665,460.295,701.628,432.342z"/>
</svg>
