<?xml version="1.0" encoding="utf-8"?>
<!-- Generator: Adobe Illustrator 16.0.0, SVG Export Plug-In . SVG Version: 6.00 Build 0)  -->
<!DOCTYPE svg PUBLIC "-//W3C//DTD SVG 1.1//EN" "http://www.w3.org/Graphics/SVG/1.1/DTD/svg11.dtd">
<svg version="1.1" id="Katman_0_xA0_Image_1_" xmlns="http://www.w3.org/2000/svg" xmlns:xlink="http://www.w3.org/1999/xlink"
	 x="0px" y="0px" width="842px" height="1034px" viewBox="1002.5 0 842 1034" enable-background="new 1002.5 0 842 1034"
	 xml:space="preserve">
<g>
	<path fill="#F9FBFF" d="M1919.906,761.094c-3.611,0.908-4.892,4.313-6.804,6.812c-19.55,25.534-35.265,53.428-50.082,81.876
		c-14.479,27.798-28.523,55.895-46.468,81.673c-13.632,19.585-29.698,37.208-50.007,50.09
		c-18.377,11.656-38.609,18.777-60.163,22.75c-20.845,3.843-41.786,3.417-62.612,2.504c-23.446-1.026-46.617-5.09-69.351-11.557
		c-17.364-4.94-34.034-11.41-49.853-19.935c-16.101-8.676-30.818-19.352-44.622-31.477c-22.089-19.402-39.099-42.822-54.918-67.22
		c-9.208-14.2-17.438-29.034-26.593-43.27c-8.518-13.237-17.182-26.469-30.005-36.2c-17.136-13.007-35.76-13.443-55.071-6.203
		c-28.911,10.84-58.138,20.676-88.414,26.895c-21.5,4.416-43.34,6.544-65.291,5.174c-34.356-2.145-65.463-13.038-92.045-35.614
		c-10.054-8.536-19.373-17.747-27.157-28.355c-9.628-13.123-11.913-28.192-9.991-43.984c3.633-29.83,18.039-55.333,33.418-80.218
		c16.93-27.393,35.117-54.011,51.964-81.452c9.707-15.813,18.866-32.136,22.386-50.81c2.529-13.425-0.94-25.31-9.255-35.882
		c-12.688-16.133-30.218-26.199-47.068-37.034c-18.292-11.762-36.994-22.959-51.955-39.081
		c-10.023-10.803-16.726-23.044-18.295-38.253c-1.332-12.909,1.604-24.646,6.3-36.191c7.483-18.404,18.415-34.492,33.247-47.854
		c11.776-10.608,25.385-17.962,40.229-23.267c15.465-5.525,31.261-10.347,46.215-17.033c25.105-11.227,39.768-31.764,47.232-57.766
		c5.854-20.39,10.105-41.215,16.928-61.347c9.768-28.818,22.506-56.088,41.363-80.182c6.978-8.914,14.877-16.983,23.649-24.187
		c1.739-1.429,3.893-2.725,4.087-5.401c214.833,0,429.667,0.012,644.5-0.094c3.749-0.002,4.595,0.845,4.594,4.594
		C1919.896,256.094,1919.906,508.594,1919.906,761.094z"/>
</g>
</svg>
